<mxfile host="app.diagrams.net" modified="2023-10-23T07:07:15.322Z" agent="Mozilla/5.0 (Windows NT 10.0; Win64; x64) AppleWebKit/537.36 (KHTML, like Gecko) Chrome/118.0.0.0 Safari/537.36" etag="I7oHNrjfuMSsnw0zwDjt" version="22.0.6" type="github" pages="2">
  <diagram name="Luas dan Keliling Lingkaran" id="As60NBWmITr6IcEahLj_">
    <mxGraphModel dx="1257" dy="626" grid="1" gridSize="10" guides="1" tooltips="1" connect="1" arrows="1" fold="1" page="1" pageScale="1" pageWidth="850" pageHeight="1100" math="0" shadow="0">
      <root>
        <mxCell id="0" />
        <mxCell id="1" parent="0" />
        <mxCell id="t3VwvEb-FSoNEl8GtmgG-6" value="Start" style="ellipse;whiteSpace=wrap;html=1;" vertex="1" parent="1">
          <mxGeometry x="80" y="10" width="80" height="40" as="geometry" />
        </mxCell>
        <mxCell id="t3VwvEb-FSoNEl8GtmgG-8" value="" style="rhombus;whiteSpace=wrap;html=1;" vertex="1" parent="1">
          <mxGeometry x="80" y="130" width="80" height="60" as="geometry" />
        </mxCell>
        <mxCell id="t3VwvEb-FSoNEl8GtmgG-18" style="edgeStyle=orthogonalEdgeStyle;rounded=0;orthogonalLoop=1;jettySize=auto;html=1;entryX=0.5;entryY=0;entryDx=0;entryDy=0;" edge="1" parent="1" source="t3VwvEb-FSoNEl8GtmgG-9" target="t3VwvEb-FSoNEl8GtmgG-10">
          <mxGeometry relative="1" as="geometry" />
        </mxCell>
        <mxCell id="t3VwvEb-FSoNEl8GtmgG-9" value="" style="shape=process;whiteSpace=wrap;html=1;backgroundOutline=1;" vertex="1" parent="1">
          <mxGeometry x="10" y="310" width="100" height="40" as="geometry" />
        </mxCell>
        <mxCell id="t3VwvEb-FSoNEl8GtmgG-10" value="" style="rounded=0;whiteSpace=wrap;html=1;" vertex="1" parent="1">
          <mxGeometry x="70" y="380" width="100" height="40" as="geometry" />
        </mxCell>
        <mxCell id="t3VwvEb-FSoNEl8GtmgG-11" value="" style="rounded=0;whiteSpace=wrap;html=1;" vertex="1" parent="1">
          <mxGeometry x="70" y="450" width="100" height="40" as="geometry" />
        </mxCell>
        <mxCell id="t3VwvEb-FSoNEl8GtmgG-12" value="" style="shape=parallelogram;perimeter=parallelogramPerimeter;whiteSpace=wrap;html=1;fixedSize=1;" vertex="1" parent="1">
          <mxGeometry x="60" y="520" width="120" height="40" as="geometry" />
        </mxCell>
        <mxCell id="t3VwvEb-FSoNEl8GtmgG-13" value="" style="shape=parallelogram;perimeter=parallelogramPerimeter;whiteSpace=wrap;html=1;fixedSize=1;" vertex="1" parent="1">
          <mxGeometry x="60" y="70" width="120" height="40" as="geometry" />
        </mxCell>
        <mxCell id="t3VwvEb-FSoNEl8GtmgG-16" style="edgeStyle=orthogonalEdgeStyle;rounded=0;orthogonalLoop=1;jettySize=auto;html=1;exitX=1;exitY=0.5;exitDx=0;exitDy=0;entryX=0.5;entryY=0;entryDx=0;entryDy=0;" edge="1" parent="1" source="t3VwvEb-FSoNEl8GtmgG-14" target="t3VwvEb-FSoNEl8GtmgG-15">
          <mxGeometry relative="1" as="geometry" />
        </mxCell>
        <mxCell id="t3VwvEb-FSoNEl8GtmgG-17" style="edgeStyle=orthogonalEdgeStyle;rounded=0;orthogonalLoop=1;jettySize=auto;html=1;exitX=0;exitY=0.5;exitDx=0;exitDy=0;entryX=0.5;entryY=0;entryDx=0;entryDy=0;" edge="1" parent="1" source="t3VwvEb-FSoNEl8GtmgG-14" target="t3VwvEb-FSoNEl8GtmgG-9">
          <mxGeometry relative="1" as="geometry" />
        </mxCell>
        <mxCell id="t3VwvEb-FSoNEl8GtmgG-14" value="" style="rhombus;whiteSpace=wrap;html=1;" vertex="1" parent="1">
          <mxGeometry x="80" y="220" width="80" height="60" as="geometry" />
        </mxCell>
        <mxCell id="t3VwvEb-FSoNEl8GtmgG-19" style="edgeStyle=orthogonalEdgeStyle;rounded=0;orthogonalLoop=1;jettySize=auto;html=1;entryX=0.5;entryY=0;entryDx=0;entryDy=0;" edge="1" parent="1" source="t3VwvEb-FSoNEl8GtmgG-15" target="t3VwvEb-FSoNEl8GtmgG-10">
          <mxGeometry relative="1" as="geometry" />
        </mxCell>
        <mxCell id="t3VwvEb-FSoNEl8GtmgG-15" value="" style="shape=process;whiteSpace=wrap;html=1;backgroundOutline=1;" vertex="1" parent="1">
          <mxGeometry x="130" y="310" width="100" height="40" as="geometry" />
        </mxCell>
        <mxCell id="t3VwvEb-FSoNEl8GtmgG-20" value="" style="shape=parallelogram;perimeter=parallelogramPerimeter;whiteSpace=wrap;html=1;fixedSize=1;" vertex="1" parent="1">
          <mxGeometry x="60" y="590" width="120" height="40" as="geometry" />
        </mxCell>
        <mxCell id="t3VwvEb-FSoNEl8GtmgG-21" value="Start" style="ellipse;whiteSpace=wrap;html=1;" vertex="1" parent="1">
          <mxGeometry x="80" y="660" width="80" height="40" as="geometry" />
        </mxCell>
      </root>
    </mxGraphModel>
  </diagram>
  <diagram id="wqfmr4jOKLkk4H2hwCI8" name="Luas Permukaan Dadu">
    <mxGraphModel dx="880" dy="470" grid="1" gridSize="10" guides="1" tooltips="1" connect="1" arrows="1" fold="1" page="1" pageScale="1" pageWidth="850" pageHeight="1100" math="0" shadow="0">
      <root>
        <mxCell id="0" />
        <mxCell id="1" parent="0" />
      </root>
    </mxGraphModel>
  </diagram>
</mxfile>
